<svg width="453" height="130" viewBox="0 0 453 130" fill="none" xmlns="http://www.w3.org/2000/svg">
<rect x="217" width="236" height="130" rx="30" fill="#FFC007"/>
<path d="M258.859 73.75V99.0642H247V30.9358H273.109C280.734 30.9358 286.781 32.9167 291.25 36.8783C295.75 40.84 298 46.0807 298 52.6003C298 59.2758 295.797 64.4697 291.391 68.1818C287.016 71.8939 280.875 73.75 272.969 73.75H258.859ZM258.859 64.2513H273.109C277.328 64.2513 280.547 63.2687 282.766 61.3035C284.984 59.307 286.094 56.4372 286.094 52.6938C286.094 49.0129 284.969 46.0807 282.719 43.8971C280.469 41.6823 277.375 40.5437 273.438 40.4813H258.859V64.2513Z" fill="#262626"/>
<path d="M333.484 72.8142H320.266V99.0642H308.406V30.9358H332.406C340.281 30.9358 346.359 32.6983 350.641 36.2233C354.922 39.7482 357.062 44.8485 357.062 51.5241C357.062 56.0784 355.953 59.8997 353.734 62.988C351.547 66.045 348.484 68.4002 344.547 70.0535L359.875 98.4559V99.0642H347.172L333.484 72.8142ZM320.266 63.3155H332.453C336.453 63.3155 339.578 62.3173 341.828 60.3209C344.078 58.2932 345.203 55.5325 345.203 52.0388C345.203 48.389 344.156 45.566 342.062 43.5695C340 41.5731 336.906 40.5437 332.781 40.4813H320.266V63.3155Z" fill="#262626"/>
<path d="M422.781 66.7781C422.781 73.4537 421.625 79.3182 419.312 84.3717C417 89.3939 413.688 93.262 409.375 95.9759C405.094 98.6586 400.156 100 394.562 100C389.031 100 384.094 98.6586 379.75 95.9759C375.438 93.262 372.094 89.4095 369.719 84.4184C367.375 79.4274 366.188 73.672 366.156 67.1524V63.3155C366.156 56.6711 367.328 50.8066 369.672 45.7219C372.047 40.6373 375.375 36.7536 379.656 34.0709C383.969 31.357 388.906 30 394.469 30C400.031 30 404.953 31.3414 409.234 34.0241C413.547 36.6756 416.875 40.5125 419.219 45.5348C421.562 50.5258 422.75 56.3436 422.781 62.988V66.7781ZM410.922 63.2219C410.922 55.6729 409.484 49.8864 406.609 45.8623C403.766 41.8382 399.719 39.8262 394.469 39.8262C389.344 39.8262 385.328 41.8382 382.422 45.8623C379.547 49.8552 378.078 55.5169 378.016 62.8476V66.7781C378.016 74.2647 379.469 80.0512 382.375 84.1377C385.312 88.2242 389.375 90.2674 394.562 90.2674C399.812 90.2674 403.844 88.2709 406.656 84.2781C409.5 80.2852 410.922 74.4519 410.922 66.7781V63.2219Z" fill="#262626"/>
<path d="M0.000347966 86.0845C2.90293 83.6228 6.31438 80.6063 10.2347 77.035C14.155 73.4637 18.1396 69.8318 22.1886 66.1393C26.2301 62.4431 30.1045 58.8553 33.8117 55.3759C37.519 51.8965 40.5575 48.9682 42.9273 46.591H7.92549C5.02291 46.591 2.97641 46.0178 1.78599 44.8715C0.59556 43.7251 0.000347966 42.0534 0.000347966 39.8563C-0.0100652 38.4207 0.213305 36.993 0.661695 35.6291C0.955072 34.6889 1.30852 33.7685 1.71985 32.8735H55.4764C58.0299 32.8735 60.0507 33.4687 61.5387 34.6592C63.0268 35.8496 63.7763 37.6867 63.7873 40.1704C63.7873 41.7826 63.3817 43.3689 62.6079 44.7833C61.8143 46.253 60.3171 48.09 58.1163 50.2945C56.7054 51.7054 54.9657 53.401 52.8971 55.3814C50.8286 57.3618 48.6057 59.4505 46.2285 61.6477C43.8514 63.8522 41.386 66.1191 38.8325 68.4485C36.2789 70.7779 33.8062 73.0247 31.4144 75.1888C29.0555 77.3308 26.818 79.3332 24.7017 81.196C22.5854 83.0588 20.7814 84.6442 19.2896 85.9522H63.9306V99.1791H0.000347966V86.0845Z" fill="#7B1FA1"/>
<path d="M132.347 94.2739C131.641 94.7148 130.539 95.3265 129.04 96.1202C127.248 97.0351 125.378 97.7876 123.452 98.3687C120.895 99.1468 118.292 99.7634 115.659 100.215C112.446 100.763 109.191 101.025 105.931 100.998C101.238 101.048 96.57 100.303 92.1257 98.7931C87.9655 97.3619 84.1442 95.0901 80.8994 92.119C77.6239 89.0806 75.0331 85.3795 73.2994 81.2619C71.4623 76.9925 70.5438 72.0838 70.5438 66.5359C70.4786 61.5837 71.3984 56.668 73.2498 52.0744C74.9602 47.8542 77.5231 44.0324 80.7781 40.848C84.0374 37.6917 87.8958 35.22 92.1257 33.5787C96.6972 31.8254 101.559 30.9521 106.455 31.005C110.567 30.9384 114.662 31.5415 118.58 32.7906C121.815 33.8225 124.836 35.4321 127.497 37.5413C129.807 39.3811 131.668 41.7229 132.938 44.389C134.208 47.0552 134.854 49.9756 134.827 52.9286C134.876 55.8135 134.3 58.6749 133.14 61.3167C131.994 63.8225 129.973 65.9811 127.078 67.7924C124.183 69.6038 120.264 71.0128 115.323 72.0196C110.392 73.0263 104.146 73.5315 96.5843 73.5351C94.8207 73.5351 93.1729 73.5351 91.6242 73.469C90.0756 73.4029 88.4332 73.3588 86.6641 73.2706C86.9733 75.4305 87.7107 77.5068 88.8331 79.3778C89.9555 81.2488 91.4404 82.8768 93.2004 84.1663C96.8342 86.9366 102.046 88.3218 108.836 88.3218C112.769 88.3453 116.679 87.7215 120.409 86.4755C121.759 86.0224 123.082 85.4924 124.372 84.8883C125.474 84.3372 126.284 83.9624 126.813 83.6978L132.347 94.2739ZM85.9752 62.9701C87.9978 63.0583 89.9378 63.1024 91.784 63.1024H97.3338C101.284 63.1804 105.233 62.8703 109.122 62.1765C111.565 61.7528 113.926 60.9515 116.122 59.8011C117.79 58.8312 118.892 57.7289 119.428 56.4944C119.953 55.2874 120.223 53.9855 120.222 52.6696C120.222 49.3188 118.879 46.8075 116.193 45.1358C113.507 43.464 110.184 42.6282 106.223 42.6282C103.27 42.5649 100.338 43.1519 97.637 44.3477C95.2718 45.4153 93.1561 46.966 91.4258 48.8999C89.7374 50.8235 88.4166 53.0409 87.5294 55.4418C86.6059 57.8502 86.081 60.3929 85.9752 62.9701Z" fill="#7B1FA1"/>
<path d="M141.457 59.1399C141.388 55.0668 142.223 51.0291 143.904 47.3183C145.478 43.9128 147.776 40.892 150.639 38.4673C153.634 35.9726 157.088 34.0873 160.807 32.9175C164.973 31.6061 169.32 30.9607 173.687 31.0051C178.075 30.9641 182.443 31.6094 186.633 32.9175C190.376 34.0772 193.853 35.963 196.867 38.4673C199.723 40.8841 202.003 43.908 203.541 47.3183C205.174 51.042 205.985 55.0743 205.916 59.1399V99.1569H190.86V62.9702C190.86 56.985 189.407 52.4272 186.5 49.2968C183.594 46.1665 179.323 44.605 173.687 44.6123C167.962 44.6123 163.669 46.1738 160.807 49.2968C157.945 52.4199 156.516 56.9777 156.519 62.9702V99.1569H141.457V59.1399Z" fill="#7B1FA1"/>
</svg>
